<svg width="57" height="55" viewBox="0 0 57 55" fill="none" xmlns="http://www.w3.org/2000/svg">
<path d="M45.1204 25.474H12.3796C9.79641 25.474 7.70233 27.4963 7.70233 29.991V45.8008C7.70233 48.2956 9.79641 50.3179 12.3796 50.3179H45.1204C47.7036 50.3179 49.7977 48.2956 49.7977 45.8008V29.991C49.7977 27.4963 47.7036 25.474 45.1204 25.474Z" stroke="white" stroke-width="3" stroke-linecap="round" stroke-linejoin="round"/>
<path d="M17.0568 25.474V16.4398C17.0568 13.4448 18.2888 10.5724 20.4817 8.45464C22.6746 6.33685 25.6488 5.14709 28.75 5.14709C31.8512 5.14709 34.8254 6.33685 37.0183 8.45464C39.2112 10.5724 40.4431 13.4448 40.4431 16.4398V25.474" stroke="white" stroke-width="3" stroke-linecap="round" stroke-linejoin="round"/>
</svg>
